<svg width="18" height="20" viewBox="0 0 18 20" fill="none" xmlns="http://www.w3.org/2000/svg">
<path d="M9.23053 10C9.79745 10 10.2829 9.804 10.687 9.412C11.0904 9.02067 11.2921 8.55 11.2921 8C11.2921 7.45 11.0904 6.979 10.687 6.587C10.2829 6.19567 9.79745 6 9.23053 6C8.66361 6 8.17846 6.19567 7.77508 6.587C7.37102 6.979 7.16899 7.45 7.16899 8C7.16899 8.55 7.37102 9.02067 7.77508 9.412C8.17846 9.804 8.66361 10 9.23053 10ZM9.23053 20C6.46463 17.7167 4.39897 15.5957 3.03354 13.637C1.66743 11.679 0.984375 9.86667 0.984375 8.2C0.984375 5.7 1.81346 3.70833 3.47162 2.225C5.1291 0.741667 7.04873 0 9.23053 0C11.4123 0 13.332 0.741667 14.9894 2.225C16.6476 3.70833 17.4767 5.7 17.4767 8.2C17.4767 9.86667 16.794 11.679 15.4285 13.637C14.0624 15.5957 11.9964 17.7167 9.23053 20Z" fill="#2D2D47"/>
</svg>
