<svg width="29" height="29" viewBox="0 0 29 29" fill="none" xmlns="http://www.w3.org/2000/svg">
<circle cx="14.5" cy="14.5" r="13.6471" stroke="#2D2D47" stroke-width="1.70588"/>
<path fill-rule="evenodd" clip-rule="evenodd" d="M11.0722 9.86696C10.738 9.53497 10.198 9.53677 9.86598 9.87097C9.534 10.2052 9.53579 10.7452 9.87 11.0772L13.129 14.3145L9.87 17.5519C9.53579 17.8839 9.534 18.4239 9.86598 18.7581C10.198 19.0923 10.738 19.0941 11.0722 18.7621L14.3392 15.5168L17.6063 18.7621C17.9405 19.0941 18.4805 19.0923 18.8125 18.7581C19.1445 18.4239 19.1427 17.8839 18.8085 17.5519L15.5495 14.3145L18.8085 11.0772C19.1427 10.7452 19.1445 10.2052 18.8125 9.87097C18.4805 9.53677 17.9405 9.53497 17.6063 9.86696L14.3392 13.1123L11.0722 9.86696Z" fill="#2D2D47"/>
</svg>
