<svg width="18" height="17" viewBox="0 0 18 17" fill="none" xmlns="http://www.w3.org/2000/svg">
<path fill-rule="evenodd" clip-rule="evenodd" d="M12.3892 0.511853C12.9369 0.511853 13.4837 0.5868 14.0037 0.756062C17.2075 1.76658 18.3619 5.17708 17.3976 8.1581C16.8507 9.68146 15.9567 11.0718 14.7857 12.2078C13.1096 13.7825 11.2703 15.1804 9.29036 16.3846L9.07336 16.5117L8.84768 16.3761C6.86078 15.1804 5.01105 13.7825 3.3193 12.1993C2.15617 11.0633 1.26125 9.68146 0.705726 8.1581C-0.275125 5.17708 0.879327 1.76658 4.11787 0.738378C4.36959 0.654168 4.62913 0.595221 4.88953 0.562379H4.99369C5.2376 0.527853 5.47978 0.511853 5.72282 0.511853H5.8183C6.36515 0.527853 6.89463 0.620484 7.40765 0.789746H7.45886C7.49358 0.805746 7.51963 0.82343 7.53699 0.83943C7.72882 0.899219 7.91023 0.966587 8.08383 1.05922L8.41368 1.20237C8.49336 1.24361 8.58285 1.30663 8.6601 1.36108C8.70915 1.39559 8.75324 1.42666 8.78692 1.44658C8.80107 1.45469 8.81548 1.46284 8.82997 1.47106C8.90436 1.51321 8.98196 1.55712 9.04732 1.60574C10.0117 0.890798 11.1826 0.503432 12.3892 0.511853ZM14.6981 6.57496C15.0539 6.5657 15.3577 6.28865 15.3838 5.93413V5.83392C15.4098 4.65414 14.6729 3.58551 13.5523 3.17288C13.1964 3.05415 12.8058 3.24025 12.6756 3.59393C12.5541 3.94762 12.745 4.33498 13.1096 4.46045C13.666 4.66256 14.0384 5.19392 14.0384 5.78255V5.80865C14.0219 6.00149 14.0818 6.1876 14.2033 6.33076C14.3248 6.47391 14.5071 6.55728 14.6981 6.57496Z" fill="#2D2D47"/>
</svg>
