<svg width="200" height="127" viewBox="0 0 200 127" fill="none" xmlns="http://www.w3.org/2000/svg">

<path d="M52.904 24.9277C52.904 23.6076 52.6439 22.3005 52.1388 21.0809C51.6336 19.8613 50.8931 18.7531 49.9597 17.8197C49.0263 16.8862 47.9181 16.1458 46.6985 15.6406C45.4789 15.1354 44.1717 14.8754 42.8516 14.8754C41.5315 14.8754 40.2244 15.1354 39.0048 15.6406C37.7852 16.1458 36.677 16.8862 35.7436 17.8197C34.8101 18.7531 34.0697 19.8613 33.5645 21.0809C33.0593 22.3005 32.7993 23.6076 32.7993 24.9277L35.1214 24.9277C35.1214 23.9126 35.3213 22.9074 35.7098 21.9695C36.0983 21.0316 36.6677 20.1794 37.3855 19.4616C38.1033 18.7438 38.9555 18.1744 39.8934 17.7859C40.8313 17.3974 41.8365 17.1975 42.8516 17.1975C43.8668 17.1975 44.872 17.3974 45.8099 17.7859C46.7478 18.1744 47.5999 18.7438 48.3178 19.4616C49.0356 20.1794 49.605 21.0316 49.9935 21.9695C50.3819 22.9074 50.5819 23.9126 50.5819 24.9277L52.904 24.9277Z" fill="#FEC803"/>
<path d="M62.6172 28.002C62.6172 26.3041 61.2408 24.9277 59.5429 24.9277H26.162C24.4641 24.9277 23.0877 26.3041 23.0877 28.002V44.6378C23.0877 53.4838 30.2588 60.6549 39.1048 60.6549H46.6001C55.4461 60.6549 62.6172 53.4838 62.6172 44.6378V28.002Z" fill="#311164"/>
<path d="M30.0059 43.016C30.8537 45.7597 32.5576 48.1598 34.8681 49.865C37.1786 51.5702 39.9744 52.4909 42.846 52.4922C45.7176 52.4935 48.5142 51.5755 50.8263 49.8724C53.1384 48.1693 54.8445 45.7708 55.6948 43.0279L50.556 41.4348C50.0459 43.0802 49.0225 44.519 47.6356 45.5406C46.2486 46.5622 44.571 47.1129 42.8485 47.1121C41.1259 47.1113 39.4488 46.5591 38.0628 45.5362C36.6768 44.5133 35.6547 43.0735 35.1462 41.4277L30.0059 43.016Z" fill="#FEC803"/>


<defs>
<filter id="filter0_d_11926_118156" x="0.436929" y="0.32404" width="84.8302" height="86.6593" filterUnits="userSpaceOnUse" color-interpolation-filters="sRGB">
<feFlood flood-opacity="0" result="BackgroundImageFix"/>
<feColorMatrix in="SourceAlpha" type="matrix" values="0 0 0 0 0 0 0 0 0 0 0 0 0 0 0 0 0 0 127 0" result="hardAlpha"/>
<feOffset dy="5.88711"/>
<feGaussianBlur stdDeviation="4.28154"/>
<feComposite in2="hardAlpha" operator="out"/>
<feColorMatrix type="matrix" values="0 0 0 0 0 0 0 0 0 0 0 0 0 0 0 0 0 0 0.15 0"/>
<feBlend mode="normal" in2="BackgroundImageFix" result="effect1_dropShadow_11926_118156"/>
<feBlend mode="normal" in="SourceGraphic" in2="effect1_dropShadow_11926_118156" result="shape"/>
</filter>
</defs>
</svg>
