<svg width="9" height="19" viewBox="0 0 9 19" fill="none" xmlns="http://www.w3.org/2000/svg">
<path d="M1.81564 4.01726C1.81564 4.47087 1.81564 6.4955 1.81564 6.4955H0V9.52589H1.81564V18.5312H5.54534V9.52614H8.04814C8.04814 9.52614 8.28254 8.07309 8.39616 6.48432C8.07041 6.48432 5.55944 6.48432 5.55944 6.48432C5.55944 6.48432 5.55944 4.72133 5.55944 4.41232C5.55944 4.10263 5.96609 3.68607 6.36801 3.68607C6.76918 3.68607 7.61588 3.68607 8.4001 3.68607C8.4001 3.27347 8.4001 1.84787 8.4001 0.53125C7.35319 0.53125 6.16216 0.53125 5.63716 0.53125C1.72344 0.531041 1.81564 3.56445 1.81564 4.01726Z" fill="white"/>
</svg>
