<svg width="17" height="17" viewBox="0 0 17 17" fill="none" xmlns="http://www.w3.org/2000/svg">
<path d="M3.73177 0.53125H13.0651C14.9032 0.53125 16.3984 2.02653 16.3984 3.86458V13.1979C16.3984 15.036 14.9032 16.5313 13.0651 16.5313H3.73177C1.89372 16.5313 0.398437 15.036 0.398437 13.1979V3.86458C0.398437 2.02653 1.89372 0.53125 3.73177 0.53125ZM1.73177 13.1979C1.73177 14.3009 2.62874 15.1979 3.73177 15.1979H13.0651C14.1681 15.1979 15.0651 14.3009 15.0651 13.1979V3.86458C15.0651 2.76156 14.1681 1.86458 13.0651 1.86458H3.73177C2.62874 1.86458 1.73177 2.76156 1.73177 3.86458V13.1979Z" fill="white"/>
<path d="M8.39323 4.53125C10.7826 4.53125 12.7266 6.47526 12.7266 8.86458C12.7266 11.2539 10.7826 13.1979 8.39323 13.1979C6.00391 13.1979 4.0599 11.2539 4.0599 8.86458C4.0599 6.47526 6.00391 4.53125 8.39323 4.53125ZM8.39323 11.8646C10.0472 11.8646 11.3932 10.5186 11.3932 8.86458C11.3932 7.21061 10.0472 5.86458 8.39323 5.86458C6.73926 5.86458 5.39323 7.21061 5.39323 8.86458C5.39323 10.5186 6.73926 11.8646 8.39323 11.8646Z" fill="white"/>
<path d="M3.72656 3C4.27783 3 4.72656 3.44873 4.72656 4C4.72656 4.55127 4.27783 5 3.72656 5C3.17529 5 2.72656 4.55127 2.72656 4C2.72656 3.44873 3.17529 3 3.72656 3Z" fill="white"/>
</svg>
