<svg width="17" height="16" viewBox="0 0 17 16" fill="none" xmlns="http://www.w3.org/2000/svg">
<path d="M16.3054 9.85039V15.7313H12.896V10.2443C12.896 8.86587 12.4029 7.92517 11.1688 7.92517C10.2268 7.92517 9.66614 8.55913 9.4195 9.17238C9.32955 9.39162 9.3064 9.69676 9.3064 10.0036V15.7313H5.89587C5.89587 15.7313 5.94181 6.43805 5.89587 5.4752H9.30607V6.92896C9.29915 6.93984 9.29017 6.95156 9.28366 6.9621H9.30607V6.92896C9.75915 6.23113 10.5683 5.23426 12.3794 5.23426C14.6233 5.23422 16.3054 6.70011 16.3054 9.85039ZM2.32832 0.53125C1.16158 0.53125 0.398438 1.29654 0.398438 2.30292C0.398438 3.28737 1.1395 4.07588 2.28305 4.07588H2.30583C3.49517 4.07588 4.23482 3.28751 4.23482 2.30292C4.21241 1.29654 3.49517 0.53125 2.32832 0.53125ZM0.600993 15.7313H4.01023V5.4752H0.600993V15.7313Z" fill="white"/>
</svg>
