<svg width="32" height="32" viewBox="0 0 32 32" fill="none" xmlns="http://www.w3.org/2000/svg">
<path fill-rule="evenodd" clip-rule="evenodd" d="M16 0C24.8366 0 32 7.16344 32 16C32 24.8366 24.8366 32 16 32C7.16344 32 0 24.8366 0 16C0 7.16344 7.16344 0 16 0ZM17.2 22.4C17.2 23.0627 16.6627 23.6 16 23.6C15.3373 23.6 14.8 23.0627 14.8 22.4V11.3021C14.7773 11.3198 14.7541 11.3382 14.7304 11.3572C14.2142 11.7717 13.6005 12.3883 12.6889 13.3081L10.4523 15.5647C9.98577 16.0354 9.22598 16.0388 8.75527 15.5723C8.28455 15.1058 8.28116 14.346 8.74769 13.8753L11.033 11.5694C11.8833 10.7115 12.5924 9.99606 13.2276 9.48591C13.8939 8.95082 14.5941 8.54383 15.4472 8.43509C15.6307 8.4117 15.8154 8.4 16 8.4C16.1846 8.4 16.3693 8.4117 16.5528 8.43509C17.4059 8.54383 18.1061 8.95082 18.7724 9.4859C19.4076 9.99605 20.1167 10.7115 20.9669 11.5694L23.2523 13.8753C23.7188 14.346 23.7155 15.1058 23.2447 15.5723C22.774 16.0388 22.0142 16.0354 21.5477 15.5647L19.3111 13.3081C18.3995 12.3883 17.7858 11.7717 17.2696 11.3572C17.2459 11.3382 17.2227 11.3198 17.2 11.3021V22.4Z" fill="white"/>
</svg>
