<svg width="20" height="16" viewBox="0 0 20 16" fill="none" xmlns="http://www.w3.org/2000/svg">
<path d="M19.3984 2.35727C18.6991 2.66713 17.9488 2.87728 17.1604 2.9711C17.9654 2.48906 18.5816 1.72446 18.8736 0.816188C18.1185 1.26259 17.285 1.58674 16.3969 1.76246C15.6858 1.0038 14.6742 0.53125 13.5522 0.53125C11.3997 0.53125 9.65439 2.27655 9.65439 4.42789C9.65439 4.73301 9.68882 5.03102 9.75532 5.31599C6.51644 5.15331 3.64443 3.60155 1.72223 1.24359C1.38622 1.81825 1.19507 2.48785 1.19507 3.20261C1.19507 4.55493 1.8837 5.74814 2.92851 6.44624C2.28974 6.42488 1.68898 6.24916 1.16303 5.95708V6.00576C1.16303 7.89353 2.50703 9.46904 4.28912 9.82761C3.96261 9.91547 3.61832 9.96415 3.26213 9.96415C3.01044 9.96415 2.76704 9.93922 2.52839 9.89172C3.02466 11.4411 4.46366 12.5678 6.1686 12.5987C4.83528 13.6435 3.15409 14.2645 1.32807 14.2645C1.01345 14.2645 0.703555 14.2455 0.398438 14.2111C2.12356 15.3188 4.17161 15.9647 6.37282 15.9647C13.5428 15.9647 17.462 10.0259 17.462 4.87551L17.4489 4.37092C18.2147 3.82474 18.8772 3.1385 19.3984 2.35727Z" fill="white"/>
</svg>
