<svg width="20" height="15" viewBox="0 0 20 15" fill="none" xmlns="http://www.w3.org/2000/svg">
<path d="M19.2586 3.92777L19.2578 3.91907C19.2417 3.76614 19.0815 2.40585 18.4202 1.71397C17.6558 0.900169 16.7893 0.801308 16.3725 0.753906C16.338 0.749992 16.3064 0.746368 16.2781 0.742599L16.2449 0.73912C13.7331 0.556473 9.93971 0.53154 9.90173 0.531395L9.8984 0.53125L9.89507 0.531395C9.85709 0.53154 6.06368 0.556473 3.52924 0.73912L3.49575 0.742599C3.46879 0.746223 3.43908 0.749557 3.40675 0.753326C2.99478 0.800873 2.1375 0.899879 1.37096 1.7431C0.741118 2.4276 0.559051 3.75875 0.540351 3.90835L0.538177 3.92777C0.532524 3.99141 0.398438 5.50637 0.398438 7.02728V8.44903C0.398438 9.96993 0.532524 11.4849 0.538177 11.5487L0.539192 11.5582C0.555282 11.7087 0.715316 13.0441 1.37357 13.7362C2.09227 14.5228 3.00101 14.6269 3.48981 14.6828C3.56707 14.6917 3.63361 14.6992 3.67898 14.7072L3.7229 14.7133C5.17321 14.8513 9.72039 14.9193 9.91319 14.922L9.91898 14.9221L9.92478 14.922C9.96276 14.9219 13.756 14.8969 16.2679 14.7143L16.301 14.7108C16.3328 14.7066 16.3685 14.7028 16.4076 14.6988C16.8172 14.6553 17.6699 14.565 18.4258 13.7332C19.0557 13.0486 19.2379 11.7174 19.2564 11.568L19.2586 11.5485C19.2643 11.4847 19.3985 9.96993 19.3985 8.44903V7.02728C19.3984 5.50637 19.2643 3.99155 19.2586 3.92777Z" fill="white"/>
<path d="M12.823 6.92365L8.62548 4.62693C8.38413 4.49487 8.09885 4.4998 7.86228 4.63997C7.62556 4.78029 7.48438 5.02817 7.48438 5.3033V9.85732C7.48438 10.1311 7.62469 10.3786 7.85982 10.5191C7.9826 10.5924 8.11871 10.6292 8.25512 10.6292C8.38007 10.6292 8.50531 10.5983 8.62055 10.5363L12.8182 8.27915C13.0674 8.14507 13.223 7.88603 13.2241 7.60292C13.2251 7.31982 13.0715 7.05962 12.823 6.92365Z" fill="#576AFF"/>
</svg>
